<svg data-v-423bf9ae="" xmlns="http://www.w3.org/2000/svg" viewBox="0 0 333 107" class="iconLeft"><!----><defs data-v-423bf9ae=""><linearGradient data-v-423bf9ae="" gradientTransform="rotate(25)" id="3d841186-4cdf-4119-8fbe-84deb9f4317f" x1="0%" y1="0%" x2="100%" y2="0%"><stop data-v-423bf9ae="" offset="0%" style="stop-color: rgb(222, 56, 55); stop-opacity: 1;"></stop><stop data-v-423bf9ae="" offset="100%" style="stop-color: rgb(210, 212, 214); stop-opacity: 1;"></stop></linearGradient></defs><!----><g data-v-423bf9ae="" id="92811b81-3bcd-4058-a4c8-39449ff31926" fill="#ffffff" transform="matrix(5.649717807769775,0,0,5.649717807769775,99.65752410888672,22.022186279296875)"><path d="M0.46 9.53L0.46 10.44C1.08 10.68 1.76 10.82 2.37 10.82C4.06 10.82 5.01 10.07 5.01 8.76C5.01 7.78 4.55 7.29 3.33 6.75L2.59 6.43C1.96 6.15 1.65 5.81 1.65 5.29C1.65 4.49 2.30 4.09 3.02 4.09C3.67 4.09 4.14 4.23 4.70 4.51L4.70 3.64C4.23 3.49 3.68 3.40 3.05 3.40C1.54 3.40 0.64 4.16 0.64 5.38C0.64 6.24 1.09 6.89 2.10 7.32L2.70 7.57C3.50 7.91 3.93 8.23 3.93 8.88C3.93 9.63 3.51 10.11 2.37 10.11C1.74 10.11 1.08 9.87 0.46 9.53ZM11.02 10.64L12.05 10.64L12.05 6.48C12.05 5.64 12.05 5.25 11.97 4.87C11.75 3.81 11.05 3.40 10.02 3.40C9.35 3.40 8.33 3.61 7.62 4.41L7.62 0.20L6.55 0.20L6.55 10.64L7.60 10.64L7.60 6.24C7.60 5.46 7.63 5.17 7.91 4.82C8.32 4.33 9.04 4.13 9.62 4.13C10.33 4.13 10.71 4.42 10.88 4.98C10.98 5.33 11.02 5.85 11.02 6.71ZM15.47 10.64L15.47 6.40C15.47 5.78 15.58 5.26 15.85 4.90C16.16 4.48 16.58 4.34 17.04 4.34C17.32 4.34 17.67 4.38 17.95 4.51L17.95 3.54C17.71 3.47 17.47 3.44 17.19 3.44C16.55 3.44 15.78 3.86 15.43 4.62C15.43 4.41 15.39 3.92 15.32 3.58L14.28 3.58C14.38 4.23 14.42 5.04 14.42 5.73L14.42 10.64ZM20.45 3.58L19.40 3.58L19.40 7.76C19.40 8.40 19.45 9.04 19.53 9.39C19.78 10.49 20.54 10.82 21.52 10.82C22.15 10.82 23.14 10.71 23.88 9.83C23.90 10.09 23.95 10.43 24.00 10.64L25.05 10.64C24.95 9.91 24.91 9.09 24.91 8.26L24.91 3.58L23.87 3.58L23.87 7.92C23.87 8.83 23.86 9.06 23.55 9.39C23.13 9.88 22.46 10.09 21.88 10.09C21.18 10.09 20.73 9.80 20.58 9.24C20.48 8.89 20.45 8.32 20.45 7.46ZM28.34 3.58L27.29 3.58L27.29 7.76C27.29 8.40 27.33 9.04 27.41 9.39C27.66 10.49 28.42 10.82 29.40 10.82C30.03 10.82 31.02 10.71 31.77 9.83C31.78 10.09 31.84 10.43 31.88 10.64L32.93 10.64C32.83 9.91 32.79 9.09 32.79 8.26L32.79 3.58L31.75 3.58L31.75 7.92C31.75 8.83 31.74 9.06 31.43 9.39C31.01 9.88 30.34 10.09 29.76 10.09C29.06 10.09 28.62 9.80 28.46 9.24C28.36 8.89 28.34 8.32 28.34 7.46ZM36.08 10.64C36.12 10.36 36.15 9.95 36.15 9.87C36.71 10.56 37.51 10.78 38.32 10.78C40.08 10.78 41.23 9.60 41.23 6.93C41.23 4.59 40.26 3.43 38.51 3.43C37.60 3.43 36.74 3.89 36.23 4.62L36.23 0.20L35.20 0.20L35.20 8.75C35.20 9.34 35.18 10.14 35.14 10.64ZM36.25 7.17C36.25 6.20 36.32 5.53 36.54 5.11C36.90 4.44 37.63 4.13 38.21 4.13C39.40 4.13 40.12 4.97 40.12 6.94C40.12 9.18 39.40 10.15 38.14 10.15C37.44 10.15 36.85 9.84 36.53 9.24C36.33 8.88 36.25 8.16 36.25 7.17Z"></path></g><!----><g data-v-423bf9ae="" id="582797e7-72c2-4a1b-abc5-09d711fc08f0" transform="matrix(1.0868111848831177,0,0,1.0868111848831177,-13.255263328552246,-0.23894432187080383)" stroke="none" fill="#ffffff"><g clip-rule="evenodd"><path d="M12.983 10.59l17.018 88.223-5.872-59.049 29.021-1.892-.054-9.883L64.549 1 53.622 18.977z"></path><path d="M59.389 54.548l5.16-53.541-8.74 39.716-19.612 1.045 1.57 20.462-7.766 36.583 12.057-39.899z"></path><path d="M62.8 67.182l.549-10.453-15.979 3.755-.032 11.797-17.337 26.532 21.68-27.616zM65.711 62.394l14.841-4.731 1.509-12.532-15.899 2.095zM72.07 44.502l10.988-1.417 1.581-10.278-8.079-.373L64.549 1l8.43 30.967z"></path><path d="M87.413 31.294l1.256-9.506-9.544-2.694L64.549 1l14.483 22.437-.422 7z"></path></g></g><!----></svg>